<svg fill="none" height="100%" width="100%" viewBox="0 0 2000 2000" xmlns:xlink="http://www.w3.org/1999/xlink" xmlns="http://www.w3.org/2000/svg"><defs><linearGradient id="i0" gradientUnits="userSpaceOnUse" spreadMethod="pad" x2="42.767" y2="377.044" x1="-46.557" y1="-403.724"><stop offset="0%" stop-color="#6ad0fb" /><stop offset="77%" stop-color="#6783d6" /><stop offset="99.5%" stop-color="#6336b2" /></linearGradient><linearGradient id="i1" gradientUnits="userSpaceOnUse" spreadMethod="pad" x2="333.587" y2="-0.266" x1="-334.064" y1="-0.266"><stop offset="0%" stop-color="#6ad0fb" /><stop offset="77%" stop-color="#6783d6" /><stop offset="99.5%" stop-color="#6336b2" /></linearGradient><linearGradient id="i2" gradientUnits="userSpaceOnUse" spreadMethod="pad" x2="56.029" y2="224.107" x1="-44.604" y1="-162.537"><stop offset="0%" stop-color="#43295d" /><stop offset="50%" stop-color="#5d3a72" /><stop offset="100%" stop-color="#774b88" /></linearGradient><linearGradient id="i3" gradientUnits="userSpaceOnUse" spreadMethod="pad" x2="61.36" y2="222.107" x1="-39.273" y1="-164.537"><stop offset="0%" stop-color="#43295d" /><stop offset="50%" stop-color="#5d3a72" /><stop offset="100%" stop-color="#774b88" /></linearGradient><linearGradient id="i4" gradientUnits="userSpaceOnUse" spreadMethod="pad" x2="4.236" y2="246.407" x1="-3.709" y1="-169.897"><stop offset="0%" stop-color="#6ad0fb" /><stop offset="77%" stop-color="#6783d6" /><stop offset="99.5%" stop-color="#6336b2" /></linearGradient><linearGradient id="i5" gradientUnits="userSpaceOnUse" spreadMethod="pad" x2="-47.508" y2="141.399" x1="32.999" y1="-87.41"><stop offset="0%" stop-color="#6ad0fb" /><stop offset="77%" stop-color="#6783d6" /><stop offset="99.5%" stop-color="#6336b2" /></linearGradient><linearGradient id="i6" gradientUnits="userSpaceOnUse" spreadMethod="pad" x2="87.028" y2="201.745" x1="-72.913" y1="-169.439"><stop offset="0%" stop-color="#965bf1" /><stop offset="49.7%" stop-color="#a961f6" /><stop offset="99.5%" stop-color="#bb68fa" /></linearGradient><linearGradient id="i7" gradientUnits="userSpaceOnUse" spreadMethod="pad" x2="83.599" y2="195.58" x1="-70.913" y1="-163.006"><stop offset="0%" stop-color="#965bf1" /><stop offset="49.7%" stop-color="#a961f6" /><stop offset="99.5%" stop-color="#bb68fa" /></linearGradient><linearGradient id="i8" gradientUnits="userSpaceOnUse" spreadMethod="pad" x2="133.319" y2="-49.794" x1="-154.883" y1="67.22"><stop offset="0%" stop-color="#43295d" /><stop offset="50%" stop-color="#5d3a72" /><stop offset="100%" stop-color="#774b88" /></linearGradient><linearGradient id="i9" gradientUnits="userSpaceOnUse" spreadMethod="pad" x2="-0.785" y2="23.89" x1="-19.975" y1="-171.203"><stop offset="0%" stop-color="#43295d" /><stop offset="50%" stop-color="#5d3a72" /><stop offset="100%" stop-color="#774b88" /></linearGradient><linearGradient id="i10" gradientUnits="userSpaceOnUse" spreadMethod="pad" x2="4.866" y2="33.324" x1="-14.985" y1="-168.484"><stop offset="0%" stop-color="#43295d" /><stop offset="50%" stop-color="#5d3a72" /><stop offset="100%" stop-color="#774b88" /></linearGradient><linearGradient id="i11" gradientUnits="userSpaceOnUse" spreadMethod="pad" x2="254.257" y2="135.569" x1="-77.458" y1="-58.252"><stop offset="0%" stop-color="#9a72f6" /><stop offset="50%" stop-color="#865fed" /><stop offset="100%" stop-color="#724ce4" /></linearGradient><linearGradient id="i12" gradientUnits="userSpaceOnUse" spreadMethod="pad" x2="59.234" y2="-0.797" x1="-59.439" y1="-0.797"><stop offset="0%" stop-color="#9a72f6" /><stop offset="50%" stop-color="#865fed" /><stop offset="100%" stop-color="#724ce4" /></linearGradient><linearGradient id="i13" gradientUnits="userSpaceOnUse" spreadMethod="pad" x2="151.984" y2="16.973" x1="-459.25" y1="-28.985"><stop offset="0%" stop-color="#9a72f6" /><stop offset="50%" stop-color="#865fed" /><stop offset="100%" stop-color="#724ce4" /></linearGradient><linearGradient id="i14" gradientUnits="userSpaceOnUse" spreadMethod="pad" x2="510.044" y2="329.184" x1="-223.628" y1="-119.634"><stop offset="0%" stop-color="#9a72f6" /><stop offset="50%" stop-color="#865fed" /><stop offset="100%" stop-color="#724ce4" /></linearGradient><linearGradient id="i15" gradientUnits="userSpaceOnUse" spreadMethod="pad" x2="433.068" y2="34.2" x1="-178.167" y1="-11.757"><stop offset="0%" stop-color="#9a72f6" /><stop offset="50%" stop-color="#865fed" /><stop offset="100%" stop-color="#724ce4" /></linearGradient><linearGradient id="i16" gradientUnits="userSpaceOnUse" spreadMethod="pad" x2="129.092" y2="21.3" x1="-65.896" y1="-12.373"><stop offset="0%" stop-color="#9a72f6" /><stop offset="50%" stop-color="#865fed" /><stop offset="100%" stop-color="#724ce4" /></linearGradient><linearGradient id="i17" gradientUnits="userSpaceOnUse" spreadMethod="pad" x2="-19.448" y2="-217.142" x1="20.409" y1="253.43"><stop offset="0%" stop-color="#43295d" /><stop offset="50%" stop-color="#5d3a72" /><stop offset="100%" stop-color="#774b88" /></linearGradient><linearGradient id="i18" gradientUnits="userSpaceOnUse" spreadMethod="pad" x2="-17.059" y2="-196.149" x1="22.798" y1="274.424"><stop offset="0%" stop-color="#43295d" /><stop offset="50%" stop-color="#5d3a72" /><stop offset="100%" stop-color="#774b88" /></linearGradient><linearGradient id="i19" gradientUnits="userSpaceOnUse" spreadMethod="pad" x2="91.371" y2="-271.547" x1="-88.63" y1="204.169"><stop offset="0%" stop-color="#43295d" /><stop offset="50%" stop-color="#5d3a72" /><stop offset="100%" stop-color="#774b88" /></linearGradient><linearGradient id="i20" gradientUnits="userSpaceOnUse" spreadMethod="pad" x2="214.05" y2="-0.701" x1="-214.924" y1="-0.701"><stop offset="0%" stop-color="#533aa9" /><stop offset="50%" stop-color="#412d8d" /><stop offset="100%" stop-color="#2f2070" /></linearGradient><linearGradient id="i21" gradientUnits="userSpaceOnUse" spreadMethod="pad" x2="-55.768" y2="-319.054" x1="52.232" y1="315.444"><stop offset="0%" stop-color="#43295d" /><stop offset="50%" stop-color="#5d3a72" /><stop offset="100%" stop-color="#774b88" /></linearGradient></defs><g transform="matrix(1,0,0,1,0,0)" id="i22"><g id="i23" transform="matrix(1,0,0,1,1477.272,1257.704)"><rect height="689.083" width="19.502" y="-344.541" x="-9.751" fill="#33226c" /></g><g id="i24" transform="matrix(1,0,0,1,525.451,1257.704)"><rect height="689.083" width="19.502" y="-344.541" x="-9.751" fill="#33226c" /></g><g id="i25" transform="matrix(1,0,0,1,1000,919.445)"><path fill="#33226c" d="M778.985,8.668C778.985,8.668,-778.985,8.668,-778.985,8.668C-781.991,8.668,-784.428,6.231,-784.428,3.225C-784.428,3.225,-784.428,-3.224,-784.428,-3.224C-784.428,-6.23,-781.991,-8.668,-778.985,-8.668C-778.985,-8.668,778.985,-8.668,778.985,-8.668C781.991,-8.668,784.428,-6.23,784.428,-3.224C784.428,-3.224,784.428,3.225,784.428,3.225C784.428,6.231,781.991,8.668,778.985,8.668Z" /></g><g id="i26" transform="matrix(1,0,0,1,1000,915.91)" opacity="0.51"><path fill="#33226c" d="M778.985,-5.132C778.985,-5.132,-778.985,-5.132,-778.985,-5.132C-781.991,-5.132,-784.428,-2.695,-784.428,0.311C-784.428,0.311,-784.428,5.132,-784.428,5.132C-784.428,2.126,-781.991,-0.311,-778.985,-0.311C-778.985,-0.311,778.985,-0.311,778.985,-0.311C781.991,-0.311,784.428,2.126,784.428,5.132C784.428,5.132,784.428,0.311,784.428,0.311C784.428,-2.695,781.991,-5.132,778.985,-5.132Z" /></g><g id="i27" transform="matrix(1,0,0,1,1725.394,1257.704)"><rect height="689.083" width="19.502" y="-344.541" x="-9.751" fill="#33226c" /></g><g id="i28" transform="matrix(1,0,0,1,277.329,1257.704)"><rect height="689.083" width="19.502" y="-344.541" x="-9.751" fill="#33226c" /></g></g><g transform="matrix(1,0,0,1,0,0)" id="i29"><g id="i30" transform="matrix(1,0,0,1,1178.085,799.536)"><path fill="#471f5e" d="M64.321,-96.566C64.321,-96.566,112.284,-16.217,112.284,35.187C112.284,64.35,78.334,96.566,78.334,96.566C78.334,96.566,-112.284,96.291,-112.284,96.291C-112.284,96.291,-0.969,65.112,-28.998,-3.267C-57.027,-71.646,-74.363,-96.566,-74.363,-96.566C-74.363,-96.566,64.321,-96.566,64.321,-96.566Z" /></g><g id="i31" transform="matrix(1,0,0,1,1171.046,500.724)"><path fill="#471f5e" d="M-404.669,213.483C-404.669,213.483,-344.663,-213.483,-344.663,-213.483C-344.663,-213.483,404.669,-213.483,404.669,-213.483C404.669,-213.483,344.663,213.483,344.663,213.483C344.663,213.483,-404.669,213.483,-404.669,213.483Z" /></g><g id="i23" transform="matrix(1,0,0,1,1171.047,500.724)"><path fill="url(#i0)" d="M335.006,202.247C335.006,202.247,-391.854,202.247,-391.854,202.247C-391.854,202.247,-335.007,-202.247,-335.007,-202.247C-335.007,-202.247,391.854,-202.247,391.854,-202.247C391.854,-202.247,335.006,202.247,335.006,202.247Z" /></g><g id="i24" transform="matrix(1,0,0,1,1134.553,477.266)" opacity="0.1"><path fill="url(#i1)" d="M-333.826,78.573C-266.506,139.353,-158.145,178.789,-35.932,178.789C168.28,178.789,333.826,68.687,333.826,-67.13C333.826,-107.333,319.318,-145.281,293.599,-178.789C293.599,-178.789,-297.656,-178.789,-297.656,-178.789C-297.656,-178.789,-333.826,78.573,-333.826,78.573Z" /></g></g><g opacity="0" id="i25"><animate repeatCount="indefinite" attributeName="opacity" dur="3.033s" begin="0s" fill="freeze" values="0; 0; 1; 1; 0; 0" keyTimes="0; 0.21978; 0.43956; 0.769231; 0.989011; 1" keySplines="0 0 1 1; 0.333 0 0 1; 0.333 0 0.667 1; 1 0 0.667 1; 0 0 1 1" calcMode="spline" /><g transform="translate(1171.947,514.509)"><animateTransform repeatCount="indefinite" type="translate" attributeName="transform" dur="3.033s" begin="0s" calcMode="spline" values="1171.947 514.509; 1171.947 514.509; 1171.947 429.509; 1171.947 429.509; 1171.947 358.509; 1171.947 358.509" keyTimes="0; 0.21978; 0.43956; 0.769231; 0.989011; 1" keySplines="0 0 1 1; 0.333 0 0 1; 0 0 1 1; 1 0 0.667 1; 0 0 1 1" fill="freeze" /><g transform="scale(1,1) translate(-1171.947,-429.509)"><g id="i25" transform="matrix(1,0,0,1,1171.947,429.509)"><path fill="#f1f2f2" d="M35.915,0C33.127,19.835,14.788,35.914,-5.047,35.914C-24.882,35.914,-38.703,19.835,-35.915,0C-33.127,-19.835,-14.788,-35.914,5.047,-35.914C24.882,-35.914,38.703,-19.835,35.915,0Z" /></g></g></g></g><g opacity="0" visibility="hidden" id="i26"><animate repeatCount="indefinite" begin="0s" calcMode="discrete" dur="3.033s" values="hidden; visible; visible; visible" keyTimes="0; 0.021998; 0.99989; 1" attributeName="visibility" /><animate repeatCount="indefinite" attributeName="opacity" dur="3.033s" begin="0s" fill="freeze" values="0; 0; 1; 1; 0" keyTimes="0; 0.241758; 0.461538; 0.791209; 1" keySplines="0 0 1 1; 0.333 0 0 1; 0.333 0 0.667 1; 1 0 0.667 1" calcMode="spline" /><g transform="translate(1158.165,592.723)"><animateTransform repeatCount="indefinite" type="translate" attributeName="transform" dur="3.033s" begin="0s" calcMode="spline" values="1158.165 592.723; 1158.165 592.723; 1158.165 507.723; 1158.165 507.723; 1158.165 436.723" keyTimes="0; 0.241758; 0.461538; 0.791209; 1" keySplines="0 0 1 1; 0.333 0 0 1; 0 0 1 1; 1 0 0.667 1" fill="freeze" /><g transform="scale(1,1) translate(-1158.165,-507.723)"><g id="i26" transform="matrix(1,0,0,1,1158.165,507.723)"><path fill="#f1f2f2" d="M67.209,7C67.209,7,-67.835,7,-67.835,7C-70.735,7,-72.965,4.435,-72.561,1.563C-72.561,1.563,-71.935,-2.891,-71.935,-2.891C-71.604,-5.247,-69.588,-7,-67.209,-7C-67.209,-7,67.835,-7,67.835,-7C70.735,-7,72.965,-4.435,72.561,-1.563C72.561,-1.563,71.935,2.891,71.935,2.891C71.604,5.247,69.588,7,67.209,7Z" /></g></g></g></g><g opacity="0" visibility="hidden" id="i27"><animate repeatCount="indefinite" begin="0s" calcMode="discrete" dur="3.033s" values="hidden; visible; visible; visible" keyTimes="0; 0.043995; 0.99989; 1" attributeName="visibility" /><animate repeatCount="indefinite" attributeName="opacity" dur="3.033s" begin="0s" fill="freeze" values="0; 0; 1; 1; 0" keyTimes="0; 0.263736; 0.483516; 0.813187; 1" keySplines="0 0 1 1; 0.333 0 0 1; 0.333 0 0.667 1; 1 0 0.667 1" calcMode="spline" /><g transform="translate(1153.568,625.662)"><animateTransform repeatCount="indefinite" type="translate" attributeName="transform" dur="3.033s" begin="0s" calcMode="spline" values="1153.568 625.662; 1153.568 625.662; 1153.568 540.662; 1153.568 540.662; 1153.568 469.662" keyTimes="0; 0.263736; 0.483516; 0.813187; 1" keySplines="0 0 1 1; 0.333 0 0 1; 0 0 1 1; 1 0 0.667 1" fill="freeze" /><g transform="scale(1,1) translate(-1153.568,-540.662)"><g id="i27" transform="matrix(1,0,0,1,1153.568,540.662)"><path fill="#f1f2f2" d="M67.209,7C67.209,7,-67.835,7,-67.835,7C-70.735,7,-72.965,4.435,-72.561,1.563C-72.561,1.563,-71.935,-2.891,-71.935,-2.891C-71.604,-5.247,-69.588,-7,-67.209,-7C-67.209,-7,67.835,-7,67.835,-7C70.735,-7,72.965,-4.435,72.561,-1.563C72.561,-1.563,71.935,2.891,71.935,2.891C71.604,5.247,69.588,7,67.209,7Z" /></g></g></g></g><g opacity="0" visibility="hidden" id="i28"><animate repeatCount="indefinite" begin="0s" calcMode="discrete" dur="3.033s" values="hidden; visible; visible; visible" keyTimes="0; 0.065993; 0.99989; 1" attributeName="visibility" /><animate repeatCount="indefinite" attributeName="opacity" dur="3.033s" begin="0s" fill="freeze" values="0; 0; 1; 1; 0" keyTimes="0; 0.285714; 0.505494; 0.835165; 1" keySplines="0 0 1 1; 0.333 0 0 1; 0.333 0 0.667 1; 1 0 0.667 1" calcMode="spline" /><g transform="translate(1145.277,677.658)"><animateTransform repeatCount="indefinite" type="translate" attributeName="transform" dur="3.033s" begin="0s" calcMode="spline" values="1145.277 677.658; 1145.277 677.658; 1145.277 592.658; 1145.277 592.658; 1145.277 521.658" keyTimes="0; 0.285714; 0.505494; 0.835165; 1" keySplines="0 0 1 1; 0.333 0 0 1; 0 0 1 1; 1 0 0.667 1" fill="freeze" /><g transform="scale(1,1) translate(-1145.277,-592.658)"><g id="i28" transform="matrix(1,0,0,1,1145.277,592.658)"><path fill="#ffb300" d="M17.584,7C17.584,7,-18.21,7,-18.21,7C-21.11,7,-23.34,4.435,-22.936,1.563C-22.936,1.563,-22.31,-2.891,-22.31,-2.891C-21.979,-5.247,-19.963,-7,-17.584,-7C-17.584,-7,18.21,-7,18.21,-7C21.11,-7,23.34,-4.435,22.936,-1.563C22.936,-1.563,22.31,2.891,22.31,2.891C21.979,5.247,19.963,7,17.584,7Z" /></g></g></g></g><g transform="matrix(1,0,0,1,0,0)" id="i32"><g id="i23" transform="matrix(1,0,0,1,364.854,854.924)"><path fill="#ffb300" d="M63.431,-45.516C63.727,-51.136,59.261,-55.853,53.633,-55.853C53.633,-55.853,10.804,-55.853,10.804,-55.853C10.804,-55.853,-10.804,-55.853,-10.804,-55.853C-10.804,-55.853,-53.633,-55.853,-53.633,-55.853C-59.261,-55.853,-63.727,-51.136,-63.431,-45.516C-62.342,-24.822,-56.698,22.559,-28.513,55.853C-28.513,55.853,-10.804,55.853,-10.804,55.853C-10.804,55.853,10.804,55.853,10.804,55.853C10.804,55.853,28.513,55.853,28.513,55.853C56.698,22.559,62.342,-24.822,63.431,-45.516Z" /></g><g><g transform="translate(368.151,799.071)"><g transform="rotate(0.834)"><animateTransform repeatCount="indefinite" type="rotate" attributeName="transform" dur="3.033s" begin="0s" calcMode="spline" values="0; 2; 0; 2" keyTimes="0; 0.494505; 0.989011; 1" keySplines="0.333 0 0.667 1; 0.333 0 0.667 1; 0.333 0 0.667 1" fill="freeze" /><g id="i31" transform="translate(-368.151,-799.071)"><g id="i24" transform="matrix(1,0,0,1,334.093,687.538)"><path fill="url(#i2)" d="M13.754,111.533C13.754,111.533,-43.564,41.457,-32.684,-111.533C55.905,-18.907,30.761,111.533,30.761,111.533C30.761,111.533,13.754,111.533,13.754,111.533Z" /></g><g id="i25" transform="matrix(1,0,0,1,334.763,687.538)" opacity="0.19"><path fill="url(#i3)" d="M-33.354,-111.533C-33.367,-111.353,-33.375,-111.177,-33.388,-110.997C35.963,-23.243,16.485,85.603,11.212,109.029C12.406,110.702,13.085,111.533,13.085,111.533C13.085,111.533,30.092,111.533,30.092,111.533C30.092,111.533,55.235,-18.906,-33.354,-111.533Z" /></g></g></g></g></g><g><g transform="translate(354.244,799.071)"><g transform="rotate(0.253)"><animateTransform repeatCount="indefinite" type="rotate" attributeName="transform" dur="3.033s" begin="0s" calcMode="spline" values="0; 0; 2; 0; 2" keyTimes="0; 0.10989; 0.604395; 1; 1" keySplines="0 0 1 1; 0.333 0 0.667 1; 0.333 0 0.667 1; 0.333 0 0.667 1" fill="freeze" /><g id="i26" transform="translate(29.954,-149.174)"><path fill="url(#i4)" d="M22.798,-149.174C22.798,-149.174,-58.364,-60.363,-19.344,149.174C-19.344,149.174,-8.54,149.174,-8.54,149.174C-8.54,149.174,49.857,-8.673,22.798,-149.174Z" /></g></g></g></g><g><g transform="translate(375.659,799.071)"><g transform="rotate(0)"><animateTransform repeatCount="indefinite" type="rotate" attributeName="transform" dur="3.033s" begin="0s" calcMode="spline" values="0; 0; 2; 0; 2" keyTimes="0; 0.21978; 0.714285; 1; 1" keySplines="0 0 1 1; 0.333 0 0.667 1; 0.333 0 0.667 1; 0.333 0 0.667 1" fill="freeze" /><g id="i27" transform="translate(44.832,-90.661)"><path fill="url(#i5)" d="M44.441,-90.661C44.441,-90.661,-23.092,-41.167,-44.832,90.661C-44.832,90.661,-36.292,90.661,-36.292,90.661C-36.292,90.661,51.379,2.081,44.441,-90.661Z" /></g></g></g></g><g id="i28" transform="matrix(1,0,0,1,355.339,858.919)" opacity="0.52"><path fill="#ffb300" d="M20.32,51.858C20.32,51.858,38.028,51.858,38.028,51.858C44.421,44.306,49.644,36.026,53.928,27.5C-11.169,22.211,-17.634,-24.66,-17.53,-43.786C-17.506,-48.245,-21.136,-51.858,-25.596,-51.858C-25.596,-51.858,-53.75,-51.858,-53.75,-51.858C-53.75,-51.858,-53.75,-51.858,-53.75,-51.858C-53.893,-51.101,-53.958,-50.318,-53.916,-49.512C-52.827,-28.818,-47.182,18.564,-18.997,51.858C-18.997,51.858,-1.289,51.858,-1.289,51.858C-1.289,51.858,20.32,51.858,20.32,51.858Z" /></g></g><g transform="matrix(1,0,0,1,0,0)" id="i33"><g id="i27" transform="matrix(1,0,0,1,1187.403,903.439)"><rect height="14.676" width="316.865" y="-7.338" x="-158.433" fill="url(#i6)" /></g><g id="i28" transform="matrix(1,0,0,1,1187.403,906.006)" opacity="0.44"><rect height="9.543" width="316.865" y="-4.771" x="-158.433" fill="url(#i7)" /></g></g><g transform="matrix(1,0,0,1,0,0)" id="i34"><g id="i24" transform="matrix(1,0,0,1,1070.394,1560.713)"><path fill="#ffb300" d="M-75.813,-41.533C-75.813,-41.533,-102.363,28.459,-85.468,37.51C-68.573,46.561,88.91,37.51,88.91,37.51C88.91,37.51,102.788,10.157,60.551,0C18.314,-10.157,-0.994,-35.499,-0.994,-35.499C-0.994,-35.499,-75.813,-41.533,-75.813,-41.533Z" /></g><g id="i25" transform="matrix(1,0,0,1,796.205,1560.713)"><path fill="#ffb300" d="M-75.813,-41.533C-75.813,-41.533,-102.362,28.459,-85.467,37.51C-68.572,46.561,88.91,37.51,88.91,37.51C88.91,37.51,102.788,10.157,60.551,0C18.314,-10.157,-0.994,-35.499,-0.994,-35.499C-0.994,-35.499,-75.813,-41.533,-75.813,-41.533Z" /></g><g id="i26" transform="matrix(1,0,0,1,0,0)"><g id="i27" transform="matrix(1,0,0,1,743.272,1287.788)"><path fill="#31236c" d="M-127.077,-248.296C-127.077,-248.296,82.372,-233.775,158.207,-167.323C182.035,-131.208,195.037,-128.318,59.243,238.615C59.243,238.615,5.792,264.618,-30.324,231.392C11.57,82.596,31.795,-64.755,31.795,-64.755C31.795,-64.755,-80.513,-59.403,-118.508,-78.798C-186.428,-113.469,-193.493,-209.366,-127.077,-248.296Z" /></g><g id="i28" transform="matrix(1,0,0,1,743.272,1287.788)" opacity="0.3"><path fill="#31236c" d="M-127.077,-248.296C-127.077,-248.296,82.372,-233.775,158.207,-167.323C182.035,-131.208,195.037,-128.318,59.243,238.615C59.243,238.615,5.792,264.618,-30.324,231.392C11.57,82.596,31.795,-64.755,31.795,-64.755C31.795,-64.755,-80.513,-59.403,-118.508,-78.798C-186.428,-113.469,-193.493,-209.366,-127.077,-248.296Z" /></g></g><g id="i27" transform="matrix(1,0,0,1,1010.582,1287.788)"><path fill="#31236c" d="M-120.336,-248.296C-120.336,-248.296,89.112,-233.775,164.947,-167.323C188.775,-131.208,201.777,-128.318,65.983,238.615C65.983,238.615,12.531,264.618,-23.584,231.392C18.31,82.596,38.535,-64.755,38.535,-64.755C38.535,-64.755,-120.373,-47.419,-157.933,-67.644C-195.493,-87.869,-186.752,-209.366,-120.336,-248.296Z" /></g><g id="i28" transform="matrix(1,0,0,1,1046.062,1375.501)" opacity="0.3"><path fill="#31236c" d="M-17.559,160.462C15.877,49.832,54.682,-160.462,54.682,-160.462C54.682,-160.462,3.055,-152.468,3.055,-152.468C3.055,-152.468,-13.773,-29.868,-48.524,104.597C-50.759,118.522,-52.924,133.19,-54.682,147.351C-43.004,156.304,-29.914,159.811,-17.559,160.462Z" /></g></g><g id="i35"><g transform="translate(725.656,1049.757)"><g transform="rotate(0)"><animateTransform repeatCount="indefinite" type="rotate" attributeName="transform" dur="3.033s" begin="0s" calcMode="spline" values="0; 0; 2; 2; 0; 0" keyTimes="0; 0.21978; 0.43956; 0.769231; 0.989011; 1" keySplines="0 0 1 1; 0.5 0 0.5 1; 0.5 0 0.5 1; 0.5 0 0.5 1; 0 0 1 1" fill="freeze" /><g transform="scale(1,1) translate(-725.656,-1049.757)"><g transform="matrix(1,0,0,1,0,0)" id="i36"><g id="i24" transform="matrix(1,0,0,1,858.047,507.947)"><path fill="#fbb1a6" d="M35.88,-64.334C35.88,-64.334,39.669,-42.729,30.939,-13.133C26.433,2.142,27.208,18.532,33.723,33.064C33.771,33.172,33.819,33.279,33.867,33.384C35.775,37.594,34.234,42.556,30.255,44.908C29.269,45.491,28.146,46.072,26.869,46.631C23.199,48.235,20.465,51.431,19.596,55.341C19.596,55.341,14.345,78.973,14.345,78.973C14.345,78.973,-25.623,71.268,-25.623,71.268C-25.623,71.268,-36.698,-17.335,-36.698,-17.335C-36.698,-17.335,-3.472,-78.973,-3.472,-78.973C-3.472,-78.973,35.88,-64.334,35.88,-64.334Z" /></g><g id="i25" transform="matrix(1,0,0,1,759.816,547.313)"><path fill="#fbb1a6" d="M52.336,36.495C52.336,36.495,39.02,52.367,36.853,84.149C36.853,84.149,-56.809,78.371,-56.809,78.371C-56.809,78.371,-43.443,35.273,-43.443,35.273C-43.443,35.273,16.99,-80.537,16.99,-80.537C16.99,-80.537,52.336,-84.149,52.336,-84.149C52.336,-84.149,62.401,-37.163,52.336,36.495Z" /></g><g id="i26" transform="matrix(1,0,0,1,791.372,486.78)"><path fill="url(#i8)" d="M79.419,109.744C77.841,119.214,68.518,125.363,59.211,123.007C41.348,118.484,16.581,107.906,19.383,84.248C23.717,47.651,29.014,-13.023,5.418,-11.578C-18.178,-10.133,-14.325,18.277,-3.731,40.428C6.863,62.579,-37.92,101.102,-74.999,95.805C-74.999,95.805,-72.35,72.451,-91.371,46.207C-117.279,10.461,-123.634,-11.097,-125.079,-30.84C-126.524,-50.583,-118.337,-76.586,-92.334,-84.772C-84.232,-108.601,-41.698,-146.581,80.085,-104.879C83.811,-103.603,87.62,-102.56,91.511,-101.953C111.042,-98.909,124.359,-104.997,124.359,-104.997C124.359,-104.997,129.713,-73.465,114.002,-52.486C107.475,-43.771,96.799,-39.13,85.964,-40.204C60.966,-42.681,48.649,-29.982,43.941,-11.578C38.644,9.128,30.939,77.989,50.201,88.101C69.463,98.213,81.02,100.139,81.02,100.139C81.02,100.139,79.419,109.744,79.419,109.744Z" /></g><g id="i27" transform="matrix(1,0,0,1,794.091,599.658)" opacity="0.26"><path fill="#fbb1a6" d="M-19.98,30.412C-19.98,30.412,2.578,31.804,2.578,31.804C4.745,0.022,18.061,-15.85,18.061,-15.85C18.808,-21.319,19.442,-26.638,19.98,-31.804C11.267,-27.219,-16.608,-8.259,-19.98,30.412Z" /></g><g id="i28" transform="matrix(1,0,0,1,0,0)"><g id="i27" transform="matrix(1,0,0,1,841.464,549.203)"><path fill="url(#i9)" d="M29.545,46.012C29.545,46.012,30.928,37.717,30.928,37.717C30.928,37.717,19.371,35.79,0.109,25.678C-16.07,17.184,-13.223,-32.756,-8.758,-60.795C-15.083,-59.705,-21.643,-56.899,-28.408,-51.995C-25.111,-31.316,-28.085,-0.333,-30.709,21.826C-33.433,44.833,-10.086,55.47,7.63,60.197C17.676,62.877,27.836,56.268,29.545,46.012Z" /></g><g id="i28" transform="matrix(1,0,0,1,743.474,552.484)"><path fill="url(#i10)" d="M-45.747,-22.671C-45.006,-21.625,-44.249,-20.568,-43.473,-19.497C-24.452,6.747,-27.101,30.102,-27.101,30.102C9.978,35.399,54.761,-3.124,44.167,-25.275C43.335,-27.015,42.551,-28.796,41.812,-30.596C12.503,-9.644,-19.066,-12.45,-45.747,-22.671Z" /></g></g></g></g></g></g></g><g id="i35"><g transform="translate(725.656,1049.757)"><g transform="rotate(0)"><animateTransform repeatCount="indefinite" type="rotate" attributeName="transform" dur="3.033s" begin="0s" calcMode="spline" values="0; 0; 2; 2; 0; 0" keyTimes="0; 0.21978; 0.43956; 0.769231; 0.989011; 1" keySplines="0 0 1 1; 0.5 0 0.5 1; 0.5 0 0.5 1; 0.5 0 0.5 1; 0 0 1 1" fill="freeze" /><g transform="scale(1,1) translate(-725.656,-1049.757)"><g transform="matrix(1,0,0,1,0,0)" id="i37"><g id="i27" transform="matrix(1,0,0,1,578.948,786.252)"><path fill="url(#i11)" d="M87.186,-156.893C87.186,-156.893,25.227,-156.17,-31.113,-43.49C-87.453,69.19,-85.262,79.787,-85.262,79.787C-85.262,79.787,-114.901,196.316,58.453,142.865C58.453,142.865,87.186,-156.893,87.186,-156.893Z" /></g><g id="i28" transform="matrix(1,0,0,1,598.929,819.797)" opacity="0.33"><path fill="url(#i12)" d="M59.337,-77.056C51.709,-104.772,45.451,-123.343,45.451,-123.343C45.451,-123.343,-106.344,37.094,-44.54,123.064C-23.719,124.447,4.175,120.821,41.472,109.321C41.472,109.321,59.337,-77.056,59.337,-77.056Z" /></g></g></g></g></g></g><g id="i35"><g transform="translate(725.656,1049.757)"><g transform="rotate(0)"><animateTransform repeatCount="indefinite" type="rotate" attributeName="transform" dur="3.033s" begin="0s" calcMode="spline" values="0; 0; 2; 2; 0; 0" keyTimes="0; 0.21978; 0.43956; 0.769231; 0.989011; 1" keySplines="0 0 1 1; 0.5 0 0.5 1; 0.5 0 0.5 1; 0.5 0 0.5 1; 0 0 1 1" fill="freeze" /><g transform="scale(1,1) translate(-725.656,-1049.757)"><g id="i38"><g transform="translate(879.186,701.122)"><g transform="rotate(-5)"><animateTransform repeatCount="indefinite" type="rotate" attributeName="transform" dur="3.033s" begin="0s" calcMode="spline" values="-5; -5; -2; -5; -5" keyTimes="0; 0.43956; 0.54945; 0.659341; 1" keySplines="0 0 1 1; 0.333 0 0.667 1; 0.333 0 0.667 1; 0 0 1 1" fill="freeze" /><g transform="scale(1,1) translate(-879.186,-701.122)"><g id="i27" transform="matrix(1,0,0,1,1197.937,859.689)"><path fill="#fbb1a6" d="M-47.656,-28.937C-47.656,-28.937,-7.719,-43.679,12.255,-31.759C34.647,-18.396,44.76,-0.314,50.177,28.915C54.513,52.31,23.09,13.746,16.589,10.857C10.088,7.968,-3.619,36.138,-22.407,28.915C-41.195,21.692,-50.586,-24.966,-50.586,-24.966" /></g><g id="i28" transform="matrix(1,0,0,1,0,0)"><g id="i27" transform="matrix(1,0,0,1,1024.74,798.985)"><path fill="url(#i13)" d="M119.723,29.668C109.963,29.126,39.554,32.818,5.052,34.693C-6.57,35.325,-17.568,29.433,-23.472,19.403C-48.497,-23.11,-114.99,-134.63,-129.994,-145.131C-145.739,-156.984,-195.147,-155.712,-197.426,-117.109C-200.74,-60.985,-169.74,-13.984,-150.79,23.167C-139.709,26.862,-104.386,127.298,-55.799,141.626C-14.158,153.905,40.268,132.958,150.059,93.953C155.115,64.338,132.725,30.39,119.723,29.668Z" /></g><g id="i28" transform="matrix(1,0,0,1,1024.117,857.634)" opacity="0.33"><path fill="url(#i14)" d="M145.912,3.319C132.613,11.626,-7.93,96.682,-66.734,18.976C-97.555,-21.752,-119.389,-63.026,-140.158,-86.757C-182.117,-142.634,-202.118,-115.634,-150.168,-35.483C-150.2,-35.214,-150.234,-34.919,-150.268,-34.628C-138.139,-25.675,-103.478,69.345,-56.319,83.252C-14.678,95.531,39.748,74.584,149.539,35.579C151.381,24.794,149.572,13.44,145.912,3.319Z" /></g></g></g></g></g></g></g></g></g></g><g id="i35"><g transform="translate(725.656,1049.757)"><g transform="rotate(0)"><animateTransform repeatCount="indefinite" type="rotate" attributeName="transform" dur="3.033s" begin="0s" calcMode="spline" values="0; 0; 2; 2; 0; 0" keyTimes="0; 0.21978; 0.43956; 0.769231; 0.989011; 1" keySplines="0 0 1 1; 0.5 0 0.5 1; 0.5 0 0.5 1; 0.5 0 0.5 1; 0 0 1 1" fill="freeze" /><g transform="scale(1,1) translate(-725.656,-1049.757)"><g id="i27" transform="matrix(1,0,0,1,735.656,885.757)"><path fill="url(#i15)" d="M-163.263,-9.433C-163.263,-9.433,-164.708,-71.551,-144.483,-148.116C-124.258,-224.681,-118.437,-271.706,15.891,-262.64C150.219,-253.574,140.513,-244.906,159.09,-231.904C174.094,-221.403,144.515,-102.63,138.294,-63.606C135.301,-38.532,124.183,80.475,151.664,139.363C182.001,204.371,-28.959,312.718,-163.286,239.042C-161.819,81.578,-163.263,-9.433,-163.263,-9.433Z" /></g><g id="i28" transform="matrix(1,0,0,1,824.385,936.373)" opacity="0.33"><path fill="url(#i16)" d="M-7.76,-165.629C-61.091,-106.079,-65.841,57.131,-64.569,63.748C-63.713,68.2,-38.295,139.539,-21.752,185.749C37.26,159.442,76.004,119.477,61.792,89.023C34.311,30.135,45.429,-88.872,48.422,-113.946C48.748,-113.837,49.097,-113.638,49.464,-113.367C49.498,-113.658,49.532,-113.953,49.564,-114.222C51.421,-125.873,55.361,-144.632,59.574,-165.496C38.729,-189.314,18.954,-195.458,-7.76,-165.629Z" /></g></g></g></g></g><g transform="matrix(1,0,0,1,0,0)" id="i39"><g id="i23" transform="matrix(1,0,0,1,969.08,1436.57)"><path fill="url(#i17)" d="M-61.405,-214.242C-61.405,-214.242,-80.102,-208.05,-80.102,-208.05C-85.855,-206.145,-88.855,-199.825,-86.694,-194.163C-86.694,-194.163,66.822,207.942,66.822,207.942C68.568,212.515,73.21,215.306,78.068,214.702C78.068,214.702,78.068,214.702,78.068,214.702C84.718,213.876,88.956,207.179,86.855,200.815C86.855,200.815,-47.965,-207.481,-47.965,-207.481C-49.808,-213.061,-55.826,-216.089,-61.405,-214.242Z" /></g><g id="i24" transform="matrix(1,0,0,1,717.691,1436.576)"><path fill="url(#i18)" d="M34.136,-221.331C34.136,-221.331,53.454,-217.493,53.454,-217.493C59.398,-216.312,63.155,-210.409,61.708,-204.524C61.708,-204.524,-41.054,213.442,-41.054,213.442C-42.223,218.196,-46.485,221.537,-51.38,221.537C-51.38,221.537,-51.38,221.537,-51.38,221.537C-58.081,221.537,-63.113,215.414,-61.812,208.84C-61.812,208.84,21.632,-212.965,21.632,-212.965C22.772,-218.73,28.372,-222.476,34.136,-221.331Z" /></g><g id="i25" transform="matrix(1,0,0,1,572.119,1463.831)"><path fill="url(#i19)" d="M56.017,-243.778C56.017,-243.778,77.293,-237.942,77.293,-237.942C83.84,-236.146,87.564,-229.251,85.476,-222.792C85.476,-222.792,-62.806,235.957,-62.806,235.957C-64.492,241.174,-69.523,244.567,-74.992,244.175C-74.992,244.175,-74.992,244.175,-74.992,244.175C-82.479,243.638,-87.61,236.394,-85.63,229.153C-85.63,229.153,41.377,-235.432,41.377,-235.432C43.113,-241.782,49.669,-245.519,56.017,-243.778Z" /></g><g id="i26" transform="matrix(1,0,0,1,757.851,1071.068)"><path fill="#362478" d="M-231.686,-5.499C-231.686,-5.499,-251.911,-212.079,-77.112,-212.079C113.748,-212.079,86.13,-17.056,136.894,56.62C158.161,102.545,194.388,138.925,229.103,157.002C263.818,175.079,15.941,256.108,-117.561,180.135C-227.352,117.655,-231.686,-5.499,-231.686,-5.499Z" /></g><g id="i27" transform="matrix(1,0,0,1,776.413,1059.701)"><path fill="url(#i20)" d="M211.19,168.369C176.475,150.292,140.248,113.912,118.981,67.987C68.217,-5.689,95.835,-200.712,-95.025,-200.712C-154.757,-200.712,-191.712,-176.586,-214.487,-144.827C-194.087,-156.454,-168.334,-163.599,-135.834,-163.599C55.026,-163.599,27.408,31.425,78.172,105.1C97.713,147.298,129.886,181.426,161.909,200.712C201.279,188.476,223.228,174.637,211.19,168.369Z" /></g><g id="i28" transform="matrix(1,0,0,1,859.257,1465.556)"><path fill="url(#i21)" d="M-50.006,-246.764C-50.006,-246.764,-50.006,-246.764,-50.006,-246.764C-62.689,-244.244,-70.704,-231.649,-67.617,-219.092C-67.617,-219.092,44.797,238.136,44.797,238.136C46.106,243.461,50.881,247.204,56.364,247.204C56.364,247.204,56.364,247.204,56.364,247.204C63.871,247.204,69.506,240.345,68.049,232.981C68.049,232.981,-23.325,-228.913,-23.325,-228.913C-25.759,-241.213,-37.708,-249.208,-50.006,-246.764Z" /></g></g><g transform="matrix(1,0,0,1,0,0)" id="i40"><g id="i23" transform="matrix(1,0,0,1,1609.302,813.965)"><path fill="#f1f2f2" d="M122.278,-96.428C122.278,-96.428,-40.416,-96.428,-40.416,-96.428C-40.416,-96.428,-122.278,96.428,-122.278,96.428C-122.278,96.428,40.416,96.428,40.416,96.428C40.416,96.428,122.278,-96.428,122.278,-96.428Z" /></g><g id="i24" transform="matrix(1,0,0,1,1588.23,801.647)" opacity="0.46"><path fill="#f1f2f2" d="M80.116,-84.11C80.116,-84.11,-19.389,-84.11,-19.389,-84.11C-19.389,-84.11,-85.416,71.44,-85.416,71.44C-69.829,79.56,-52.371,84.11,-33.936,84.11C31.981,84.11,85.416,25.975,85.416,-45.738C85.416,-59.096,83.56,-71.982,80.116,-84.11Z" /></g><g id="i25" transform="matrix(1,0,0,1,1704.071,813.965)"><path fill="#d1d3d4" d="M27.509,-96.428C27.509,-96.428,54.354,96.428,54.354,96.428C54.354,96.428,-54.354,96.428,-54.354,96.428C-54.354,96.428,27.509,-96.428,27.509,-96.428Z" /></g><g id="i26" transform="matrix(1,0,0,1,0,0)"><g id="i24" transform="matrix(1,0,0,1,1621.884,790.009)"><path fill="#d1d3d4" d="M57.514,3.13C57.514,3.13,-57.514,3.13,-57.514,3.13C-59.756,3.13,-61.272,0.841,-60.396,-1.223C-60.396,-1.223,-60.396,-1.223,-60.396,-1.223C-59.905,-2.379,-58.77,-3.13,-57.514,-3.13C-57.514,-3.13,57.514,-3.13,57.514,-3.13C59.756,-3.13,61.272,-0.841,60.396,1.223C60.396,1.223,60.396,1.223,60.396,1.223C59.905,2.379,58.77,3.13,57.514,3.13Z" /></g><g id="i25" transform="matrix(1,0,0,1,1613.043,810.835)"><path fill="#d1d3d4" d="M57.514,3.13C57.514,3.13,-57.514,3.13,-57.514,3.13C-59.756,3.13,-61.272,0.841,-60.396,-1.223C-60.396,-1.223,-60.396,-1.223,-60.396,-1.223C-59.905,-2.379,-58.77,-3.13,-57.514,-3.13C-57.514,-3.13,57.514,-3.13,57.514,-3.13C59.756,-3.13,61.272,-0.841,60.396,1.223C60.396,1.223,60.396,1.223,60.396,1.223C59.905,2.379,58.77,3.13,57.514,3.13Z" /></g><g id="i26" transform="matrix(1,0,0,1,1604.203,831.662)"><path fill="#d1d3d4" d="M57.514,3.13C57.514,3.13,-57.514,3.13,-57.514,3.13C-59.756,3.13,-61.272,0.841,-60.396,-1.223C-60.396,-1.223,-60.396,-1.223,-60.396,-1.223C-59.905,-2.379,-58.77,-3.13,-57.514,-3.13C-57.514,-3.13,57.514,-3.13,57.514,-3.13C59.756,-3.13,61.272,-0.841,60.396,1.223C60.396,1.223,60.396,1.223,60.396,1.223C59.905,2.379,58.77,3.13,57.514,3.13Z" /></g><g id="i27" transform="matrix(1,0,0,1,1575.171,849.29)"><path fill="#d1d3d4" d="M35.966,3.13C35.966,3.13,-35.966,3.13,-35.966,3.13C-38.208,3.13,-39.723,0.841,-38.847,-1.223C-38.847,-1.223,-38.847,-1.223,-38.847,-1.223C-38.356,-2.379,-37.222,-3.13,-35.966,-3.13C-35.966,-3.13,35.966,-3.13,35.966,-3.13C38.208,-3.13,39.723,-0.841,38.847,1.223C38.847,1.223,38.847,1.223,38.847,1.223C38.356,2.379,37.222,3.13,35.966,3.13Z" /></g><g id="i28" transform="matrix(1,0,0,1,1600.713,890.65)"><path fill="#d1d3d4" d="M35.966,3.13C35.966,3.13,-35.966,3.13,-35.966,3.13C-38.208,3.13,-39.723,0.841,-38.847,-1.223C-38.847,-1.223,-38.847,-1.223,-38.847,-1.223C-38.356,-2.379,-37.222,-3.13,-35.966,-3.13C-35.966,-3.13,35.966,-3.13,35.966,-3.13C38.208,-3.13,39.723,-0.841,38.847,1.223C38.847,1.223,38.847,1.223,38.847,1.223C38.356,2.379,37.222,3.13,35.966,3.13Z" /></g></g><g id="i27" transform="matrix(1,0,0,1,0,0)"><g id="i27" transform="matrix(1,0,0,1,1584.842,754.252)"><path fill="#d1d3d4" d="M9.737,-14.846C9.737,-14.846,-2.866,14.846,-2.866,14.846C-2.866,14.846,-9.737,14.846,-9.737,14.846C-9.737,14.846,2.866,-14.846,2.866,-14.846C2.866,-14.846,9.737,-14.846,9.737,-14.846Z" /></g><g id="i28" transform="matrix(1,0,0,1,1607.45,754.252)"><path fill="#d1d3d4" d="M-4.761,-14.846C-4.761,-14.846,-7.138,-9.247,-7.138,-9.247C-7.138,-9.247,-4.516,-9.247,-4.516,-9.247C-4.516,-9.247,5.325,-9.247,5.325,-9.247C5.325,-9.247,-15.548,14.846,-15.548,14.846C-15.548,14.846,-8.083,14.846,-8.083,14.846C-8.083,14.846,13.658,-10.392,13.658,-10.392C13.658,-10.392,15.548,-14.846,15.548,-14.846C15.548,-14.846,-4.761,-14.846,-4.761,-14.846Z" /></g></g><g id="i28" transform="matrix(1,0,0,1,1666.572,754.252)"><path fill="#ffb300" d="M6.81,11.832C6.81,11.832,-16.854,11.832,-16.854,11.832C-16.854,11.832,-6.81,-11.832,-6.81,-11.832C-6.81,-11.832,16.854,-11.832,16.854,-11.832C16.854,-11.832,6.81,11.832,6.81,11.832Z" /></g></g></svg>